<?xml version="1.0" encoding="UTF-8" standalone="no"?>
<!DOCTYPE svg PUBLIC "-//W3C//DTD SVG 1.1//EN" "http://www.w3.org/Graphics/SVG/1.1/DTD/svg11.dtd">
<svg width="100%" height="100%" viewBox="0 0 3000 3000" version="1.1" xmlns="http://www.w3.org/2000/svg" style="fill-rule:evenodd;clip-rule:evenodd;stroke-linejoin:round;stroke-miterlimit:2;">
    <g transform="matrix(32.3028,0,0,32.3028,-145.503,-145.503)">
        <clipPath id="_clip1">
            <path d="M45.437,6.284L90.071,28.054C96.525,31.201 99.204,38.984 96.057,45.437L74.287,90.071C71.14,96.525 63.357,99.204 56.904,96.057L12.27,74.287C5.817,71.14 3.137,63.357 6.284,56.904L28.054,12.27C31.201,5.817 38.984,3.137 45.437,6.284Z"/>
        </clipPath>
        <g clip-path="url(#_clip1)">
            <g transform="matrix(0.898794,0.438371,0.438371,-0.898794,-17.1034,74.4241)">
                <clipPath id="_clip2">
                    <path d="M363.179,-849.325L1657.44,-218.071L1208.55,702.294L-85.713,71.04L363.179,-849.325Z" clip-rule="nonzero"/>
                </clipPath>
                <g clip-path="url(#_clip2)">
                    <rect x="-14.059" y="-14.4" width="130.458" height="130.458" style="fill:rgb(39,231,64);"/>
                </g>
            </g>
        </g>
    </g>
    <g transform="matrix(29.0336,14.1606,14.1606,-29.0336,-693.504,2256.8)">
        <clipPath id="_clip3">
            <path d="M32.343,80.574L70.378,80.574C76.454,80.574 81.378,75.649 81.378,69.574L81.378,31.539C81.378,25.464 76.454,20.539 70.378,20.539L32.343,20.539C26.268,20.539 21.343,25.464 21.343,31.539L21.343,69.574C21.343,75.649 26.268,80.574 32.343,80.574Z"/>
        </clipPath>
        <g clip-path="url(#_clip3)">
            <rect x="-0.424" y="-1.228" width="103.569" height="103.569" style="fill:white;"/>
        </g>
    </g>
    <g transform="matrix(29.0336,14.1606,14.1606,-29.0336,-700.642,2257.55)">
        <clipPath id="_clip4">
            <path d="M35.173,74.051L67.227,74.051C71.093,74.051 74.227,70.917 74.227,67.051L74.227,34.996C74.227,31.13 71.093,27.996 67.227,27.996L35.173,27.996C31.307,27.996 28.173,31.13 28.173,34.996L28.173,67.051C28.173,70.917 31.307,74.051 35.173,74.051Z"/>
        </clipPath>
        <g clip-path="url(#_clip4)">
            <rect x="10.865" y="10.688" width="80.671" height="80.671" style="fill:rgb(255,0,90);"/>
        </g>
    </g>
    <g transform="matrix(30.5429,-10.5168,-10.5168,-30.5429,476.561,3599.03)">
        <clipPath id="_clip5">
            <path d="M51.346,40.461C54.298,40.461 56.692,38.067 56.692,35.115C56.692,32.163 54.298,29.769 51.346,29.769C48.394,29.769 46.001,32.163 46.001,35.115C46.001,38.067 48.394,40.461 51.346,40.461ZM66.972,56.086C69.924,56.086 72.317,53.693 72.317,50.741C72.317,47.788 69.924,45.395 66.972,45.395C64.019,45.395 61.626,47.788 61.626,50.741C61.626,53.693 64.019,56.086 66.972,56.086ZM35.721,56.497C38.673,56.497 41.066,54.104 41.066,51.152C41.066,48.199 38.673,45.806 35.721,45.806C32.768,45.806 30.375,48.199 30.375,51.152C30.375,54.104 32.768,56.497 35.721,56.497ZM51.346,71.3C54.298,71.3 56.692,68.907 56.692,65.955C56.692,63.003 54.298,60.609 51.346,60.609C48.394,60.609 46.001,63.003 46.001,65.955C46.001,68.907 48.394,71.3 51.346,71.3Z"/>
        </clipPath>
        <g clip-path="url(#_clip5)">
            <rect x="23.794" y="23.315" width="54.851" height="54.527" style="fill:rgb(41,41,41);"/>
        </g>
    </g>
</svg>
